<?xml version="1.0" encoding="utf-8" standalone="no"?>
<!DOCTYPE svg PUBLIC "-//W3C//DTD SVG 1.1//EN"
  "http://www.w3.org/Graphics/SVG/1.1/DTD/svg11.dtd">
<svg xmlns:xlink="http://www.w3.org/1999/xlink" width="504pt" height="288pt" viewBox="0 0 504 288" xmlns="http://www.w3.org/2000/svg" version="1.1">
 <metadata>
  <rdf:RDF xmlns:dc="http://purl.org/dc/elements/1.1/" xmlns:cc="http://creativecommons.org/ns#" xmlns:rdf="http://www.w3.org/1999/02/22-rdf-syntax-ns#">
   <cc:Work>
    <dc:type rdf:resource="http://purl.org/dc/dcmitype/StillImage"/>
    <dc:date>2026-03-26T00:32:35.712123</dc:date>
    <dc:format>image/svg+xml</dc:format>
    <dc:creator>
     <cc:Agent>
      <dc:title>Matplotlib v3.10.8, https://matplotlib.org/</dc:title>
     </cc:Agent>
    </dc:creator>
   </cc:Work>
  </rdf:RDF>
 </metadata>
 <defs>
  <style type="text/css">*{stroke-linejoin: round; stroke-linecap: butt}</style>
 </defs>
 <g id="figure_1">
  <g id="patch_1">
   <path d="M 0 288 
L 504 288 
L 504 0 
L 0 0 
z
" style="fill: #ffffff"/>
  </g>
  <g id="axes_1">
   <g id="patch_2">
    <path d="M 62.03 187.015707 
L 352.91 187.015707 
L 352.91 20.52 
L 62.03 20.52 
z
" style="fill: #ffffff"/>
   </g>
   <g id="patch_3">
    <path d="M 78.19 187.015707 
L 78.19 187.015707 
L 78.19 187.015707 
L 78.19 187.015707 
z
" clip-path="url(#p3217205e13)" style="fill: #3a7f58; stroke: #262626; stroke-width: 1.2; stroke-linejoin: miter"/>
   </g>
   <g id="patch_4">
    <path d="M 78.19 187.015707 
L 78.19 187.015707 
L 78.19 187.015707 
L 78.19 187.015707 
z
" clip-path="url(#p3217205e13)" style="fill: #701010; stroke: #262626; stroke-width: 1.2; stroke-linejoin: miter"/>
   </g>
   <g id="matplotlib.axis_1">
    <g id="xtick_1">
     <g id="line2d_1">
      <defs>
       <path id="md6f55907c7" d="M 0 0 
L 0 3.5 
" style="stroke: #000000"/>
      </defs>
      <g>
       <use xlink:href="#md6f55907c7" x="78.19" y="187.015707" style="stroke: #000000"/>
      </g>
     </g>
     <g id="text_1">
      <!-- 0.5 x 0.5 -->
      <g transform="translate(66.107127 252.780289) rotate(-60) scale(0.14 -0.14)">
       <defs>
        <path id="DejaVuSans-30" d="M 2034 4250 
Q 1547 4250 1301 3770 
Q 1056 3291 1056 2328 
Q 1056 1369 1301 889 
Q 1547 409 2034 409 
Q 2525 409 2770 889 
Q 3016 1369 3016 2328 
Q 3016 3291 2770 3770 
Q 2525 4250 2034 4250 
z
M 2034 4750 
Q 2819 4750 3233 4129 
Q 3647 3509 3647 2328 
Q 3647 1150 3233 529 
Q 2819 -91 2034 -91 
Q 1250 -91 836 529 
Q 422 1150 422 2328 
Q 422 3509 836 4129 
Q 1250 4750 2034 4750 
z
" transform="scale(0.015625)"/>
        <path id="DejaVuSans-2e" d="M 684 794 
L 1344 794 
L 1344 0 
L 684 0 
L 684 794 
z
" transform="scale(0.015625)"/>
        <path id="DejaVuSans-35" d="M 691 4666 
L 3169 4666 
L 3169 4134 
L 1269 4134 
L 1269 2991 
Q 1406 3038 1543 3061 
Q 1681 3084 1819 3084 
Q 2600 3084 3056 2656 
Q 3513 2228 3513 1497 
Q 3513 744 3044 326 
Q 2575 -91 1722 -91 
Q 1428 -91 1123 -41 
Q 819 9 494 109 
L 494 744 
Q 775 591 1075 516 
Q 1375 441 1709 441 
Q 2250 441 2565 725 
Q 2881 1009 2881 1497 
Q 2881 1984 2565 2268 
Q 2250 2553 1709 2553 
Q 1456 2553 1204 2497 
Q 953 2441 691 2322 
L 691 4666 
z
" transform="scale(0.015625)"/>
        <path id="DejaVuSans-20" transform="scale(0.015625)"/>
        <path id="DejaVuSans-78" d="M 3513 3500 
L 2247 1797 
L 3578 0 
L 2900 0 
L 1881 1375 
L 863 0 
L 184 0 
L 1544 1831 
L 300 3500 
L 978 3500 
L 1906 2253 
L 2834 3500 
L 3513 3500 
z
" transform="scale(0.015625)"/>
       </defs>
       <use xlink:href="#DejaVuSans-30"/>
       <use xlink:href="#DejaVuSans-2e" transform="translate(63.623047 0)"/>
       <use xlink:href="#DejaVuSans-35" transform="translate(95.410156 0)"/>
       <use xlink:href="#DejaVuSans-20" transform="translate(159.033203 0)"/>
       <use xlink:href="#DejaVuSans-78" transform="translate(190.820312 0)"/>
       <use xlink:href="#DejaVuSans-20" transform="translate(250 0)"/>
       <use xlink:href="#DejaVuSans-30" transform="translate(281.787109 0)"/>
       <use xlink:href="#DejaVuSans-2e" transform="translate(345.410156 0)"/>
       <use xlink:href="#DejaVuSans-35" transform="translate(377.197266 0)"/>
      </g>
     </g>
    </g>
    <g id="xtick_2">
     <g id="line2d_2">
      <g>
       <use xlink:href="#md6f55907c7" x="110.51" y="187.015707" style="stroke: #000000"/>
      </g>
     </g>
     <g id="text_2">
      <!-- 0.5 x 0.8 -->
      <g transform="translate(98.427127 252.780289) rotate(-60) scale(0.14 -0.14)">
       <defs>
        <path id="DejaVuSans-38" d="M 2034 2216 
Q 1584 2216 1326 1975 
Q 1069 1734 1069 1313 
Q 1069 891 1326 650 
Q 1584 409 2034 409 
Q 2484 409 2743 651 
Q 3003 894 3003 1313 
Q 3003 1734 2745 1975 
Q 2488 2216 2034 2216 
z
M 1403 2484 
Q 997 2584 770 2862 
Q 544 3141 544 3541 
Q 544 4100 942 4425 
Q 1341 4750 2034 4750 
Q 2731 4750 3128 4425 
Q 3525 4100 3525 3541 
Q 3525 3141 3298 2862 
Q 3072 2584 2669 2484 
Q 3125 2378 3379 2068 
Q 3634 1759 3634 1313 
Q 3634 634 3220 271 
Q 2806 -91 2034 -91 
Q 1263 -91 848 271 
Q 434 634 434 1313 
Q 434 1759 690 2068 
Q 947 2378 1403 2484 
z
M 1172 3481 
Q 1172 3119 1398 2916 
Q 1625 2713 2034 2713 
Q 2441 2713 2670 2916 
Q 2900 3119 2900 3481 
Q 2900 3844 2670 4047 
Q 2441 4250 2034 4250 
Q 1625 4250 1398 4047 
Q 1172 3844 1172 3481 
z
" transform="scale(0.015625)"/>
       </defs>
       <use xlink:href="#DejaVuSans-30"/>
       <use xlink:href="#DejaVuSans-2e" transform="translate(63.623047 0)"/>
       <use xlink:href="#DejaVuSans-35" transform="translate(95.410156 0)"/>
       <use xlink:href="#DejaVuSans-20" transform="translate(159.033203 0)"/>
       <use xlink:href="#DejaVuSans-78" transform="translate(190.820312 0)"/>
       <use xlink:href="#DejaVuSans-20" transform="translate(250 0)"/>
       <use xlink:href="#DejaVuSans-30" transform="translate(281.787109 0)"/>
       <use xlink:href="#DejaVuSans-2e" transform="translate(345.410156 0)"/>
       <use xlink:href="#DejaVuSans-38" transform="translate(377.197266 0)"/>
      </g>
     </g>
    </g>
    <g id="xtick_3">
     <g id="line2d_3">
      <g>
       <use xlink:href="#md6f55907c7" x="142.83" y="187.015707" style="stroke: #000000"/>
      </g>
     </g>
     <g id="text_3">
      <!-- 0.5 x 1.0 -->
      <g transform="translate(130.747127 252.780289) rotate(-60) scale(0.14 -0.14)">
       <defs>
        <path id="DejaVuSans-31" d="M 794 531 
L 1825 531 
L 1825 4091 
L 703 3866 
L 703 4441 
L 1819 4666 
L 2450 4666 
L 2450 531 
L 3481 531 
L 3481 0 
L 794 0 
L 794 531 
z
" transform="scale(0.015625)"/>
       </defs>
       <use xlink:href="#DejaVuSans-30"/>
       <use xlink:href="#DejaVuSans-2e" transform="translate(63.623047 0)"/>
       <use xlink:href="#DejaVuSans-35" transform="translate(95.410156 0)"/>
       <use xlink:href="#DejaVuSans-20" transform="translate(159.033203 0)"/>
       <use xlink:href="#DejaVuSans-78" transform="translate(190.820312 0)"/>
       <use xlink:href="#DejaVuSans-20" transform="translate(250 0)"/>
       <use xlink:href="#DejaVuSans-31" transform="translate(281.787109 0)"/>
       <use xlink:href="#DejaVuSans-2e" transform="translate(345.410156 0)"/>
       <use xlink:href="#DejaVuSans-30" transform="translate(377.197266 0)"/>
      </g>
     </g>
    </g>
    <g id="xtick_4">
     <g id="line2d_4">
      <g>
       <use xlink:href="#md6f55907c7" x="175.15" y="187.015707" style="stroke: #000000"/>
      </g>
     </g>
     <g id="text_4">
      <!-- 0.8 x 0.5 -->
      <g transform="translate(163.067127 252.780289) rotate(-60) scale(0.14 -0.14)">
       <use xlink:href="#DejaVuSans-30"/>
       <use xlink:href="#DejaVuSans-2e" transform="translate(63.623047 0)"/>
       <use xlink:href="#DejaVuSans-38" transform="translate(95.410156 0)"/>
       <use xlink:href="#DejaVuSans-20" transform="translate(159.033203 0)"/>
       <use xlink:href="#DejaVuSans-78" transform="translate(190.820312 0)"/>
       <use xlink:href="#DejaVuSans-20" transform="translate(250 0)"/>
       <use xlink:href="#DejaVuSans-30" transform="translate(281.787109 0)"/>
       <use xlink:href="#DejaVuSans-2e" transform="translate(345.410156 0)"/>
       <use xlink:href="#DejaVuSans-35" transform="translate(377.197266 0)"/>
      </g>
     </g>
    </g>
    <g id="xtick_5">
     <g id="line2d_5">
      <g>
       <use xlink:href="#md6f55907c7" x="207.47" y="187.015707" style="stroke: #000000"/>
      </g>
     </g>
     <g id="text_5">
      <!-- 0.8 x 0.8 -->
      <g transform="translate(195.387127 252.780289) rotate(-60) scale(0.14 -0.14)">
       <use xlink:href="#DejaVuSans-30"/>
       <use xlink:href="#DejaVuSans-2e" transform="translate(63.623047 0)"/>
       <use xlink:href="#DejaVuSans-38" transform="translate(95.410156 0)"/>
       <use xlink:href="#DejaVuSans-20" transform="translate(159.033203 0)"/>
       <use xlink:href="#DejaVuSans-78" transform="translate(190.820312 0)"/>
       <use xlink:href="#DejaVuSans-20" transform="translate(250 0)"/>
       <use xlink:href="#DejaVuSans-30" transform="translate(281.787109 0)"/>
       <use xlink:href="#DejaVuSans-2e" transform="translate(345.410156 0)"/>
       <use xlink:href="#DejaVuSans-38" transform="translate(377.197266 0)"/>
      </g>
     </g>
    </g>
    <g id="xtick_6">
     <g id="line2d_6">
      <g>
       <use xlink:href="#md6f55907c7" x="239.79" y="187.015707" style="stroke: #000000"/>
      </g>
     </g>
     <g id="text_6">
      <!-- 0.8 x 1.0 -->
      <g transform="translate(227.707127 252.780289) rotate(-60) scale(0.14 -0.14)">
       <use xlink:href="#DejaVuSans-30"/>
       <use xlink:href="#DejaVuSans-2e" transform="translate(63.623047 0)"/>
       <use xlink:href="#DejaVuSans-38" transform="translate(95.410156 0)"/>
       <use xlink:href="#DejaVuSans-20" transform="translate(159.033203 0)"/>
       <use xlink:href="#DejaVuSans-78" transform="translate(190.820312 0)"/>
       <use xlink:href="#DejaVuSans-20" transform="translate(250 0)"/>
       <use xlink:href="#DejaVuSans-31" transform="translate(281.787109 0)"/>
       <use xlink:href="#DejaVuSans-2e" transform="translate(345.410156 0)"/>
       <use xlink:href="#DejaVuSans-30" transform="translate(377.197266 0)"/>
      </g>
     </g>
    </g>
    <g id="xtick_7">
     <g id="line2d_7">
      <g>
       <use xlink:href="#md6f55907c7" x="272.11" y="187.015707" style="stroke: #000000"/>
      </g>
     </g>
     <g id="text_7">
      <!-- 1.0 x 0.5 -->
      <g transform="translate(260.027127 252.780289) rotate(-60) scale(0.14 -0.14)">
       <use xlink:href="#DejaVuSans-31"/>
       <use xlink:href="#DejaVuSans-2e" transform="translate(63.623047 0)"/>
       <use xlink:href="#DejaVuSans-30" transform="translate(95.410156 0)"/>
       <use xlink:href="#DejaVuSans-20" transform="translate(159.033203 0)"/>
       <use xlink:href="#DejaVuSans-78" transform="translate(190.820312 0)"/>
       <use xlink:href="#DejaVuSans-20" transform="translate(250 0)"/>
       <use xlink:href="#DejaVuSans-30" transform="translate(281.787109 0)"/>
       <use xlink:href="#DejaVuSans-2e" transform="translate(345.410156 0)"/>
       <use xlink:href="#DejaVuSans-35" transform="translate(377.197266 0)"/>
      </g>
     </g>
    </g>
    <g id="xtick_8">
     <g id="line2d_8">
      <g>
       <use xlink:href="#md6f55907c7" x="304.43" y="187.015707" style="stroke: #000000"/>
      </g>
     </g>
     <g id="text_8">
      <!-- 1.0 x 0.8 -->
      <g transform="translate(292.347127 252.780289) rotate(-60) scale(0.14 -0.14)">
       <use xlink:href="#DejaVuSans-31"/>
       <use xlink:href="#DejaVuSans-2e" transform="translate(63.623047 0)"/>
       <use xlink:href="#DejaVuSans-30" transform="translate(95.410156 0)"/>
       <use xlink:href="#DejaVuSans-20" transform="translate(159.033203 0)"/>
       <use xlink:href="#DejaVuSans-78" transform="translate(190.820312 0)"/>
       <use xlink:href="#DejaVuSans-20" transform="translate(250 0)"/>
       <use xlink:href="#DejaVuSans-30" transform="translate(281.787109 0)"/>
       <use xlink:href="#DejaVuSans-2e" transform="translate(345.410156 0)"/>
       <use xlink:href="#DejaVuSans-38" transform="translate(377.197266 0)"/>
      </g>
     </g>
    </g>
    <g id="xtick_9">
     <g id="line2d_9">
      <g>
       <use xlink:href="#md6f55907c7" x="336.75" y="187.015707" style="stroke: #000000"/>
      </g>
     </g>
     <g id="text_9">
      <!-- 1.0 x 1.0 -->
      <g transform="translate(324.667127 252.780289) rotate(-60) scale(0.14 -0.14)">
       <use xlink:href="#DejaVuSans-31"/>
       <use xlink:href="#DejaVuSans-2e" transform="translate(63.623047 0)"/>
       <use xlink:href="#DejaVuSans-30" transform="translate(95.410156 0)"/>
       <use xlink:href="#DejaVuSans-20" transform="translate(159.033203 0)"/>
       <use xlink:href="#DejaVuSans-78" transform="translate(190.820312 0)"/>
       <use xlink:href="#DejaVuSans-20" transform="translate(250 0)"/>
       <use xlink:href="#DejaVuSans-31" transform="translate(281.787109 0)"/>
       <use xlink:href="#DejaVuSans-2e" transform="translate(345.410156 0)"/>
       <use xlink:href="#DejaVuSans-30" transform="translate(377.197266 0)"/>
      </g>
     </g>
    </g>
    <g id="text_10">
     <!-- $p_1 \times p_2$ -->
     <g transform="translate(183.32 268.845445) scale(0.14 -0.14)">
      <defs>
       <path id="DejaVuSans-Oblique-70" d="M 3175 2156 
Q 3175 2616 2975 2859 
Q 2775 3103 2400 3103 
Q 2144 3103 1911 2972 
Q 1678 2841 1497 2591 
Q 1319 2344 1212 1994 
Q 1106 1644 1106 1300 
Q 1106 863 1306 627 
Q 1506 391 1875 391 
Q 2147 391 2380 519 
Q 2613 647 2778 891 
Q 2956 1147 3065 1494 
Q 3175 1841 3175 2156 
z
M 1394 2969 
Q 1625 3272 1939 3428 
Q 2253 3584 2638 3584 
Q 3175 3584 3472 3232 
Q 3769 2881 3769 2247 
Q 3769 1728 3584 1258 
Q 3400 788 3053 416 
Q 2822 169 2531 39 
Q 2241 -91 1919 -91 
Q 1547 -91 1294 64 
Q 1041 219 916 525 
L 556 -1331 
L -19 -1331 
L 922 3500 
L 1497 3500 
L 1394 2969 
z
" transform="scale(0.015625)"/>
       <path id="DejaVuSans-d7" d="M 4488 3438 
L 3059 2003 
L 4488 575 
L 4116 197 
L 2681 1631 
L 1247 197 
L 878 575 
L 2303 2003 
L 878 3438 
L 1247 3816 
L 2681 2381 
L 4116 3816 
L 4488 3438 
z
" transform="scale(0.015625)"/>
       <path id="DejaVuSans-32" d="M 1228 531 
L 3431 531 
L 3431 0 
L 469 0 
L 469 531 
Q 828 903 1448 1529 
Q 2069 2156 2228 2338 
Q 2531 2678 2651 2914 
Q 2772 3150 2772 3378 
Q 2772 3750 2511 3984 
Q 2250 4219 1831 4219 
Q 1534 4219 1204 4116 
Q 875 4013 500 3803 
L 500 4441 
Q 881 4594 1212 4672 
Q 1544 4750 1819 4750 
Q 2544 4750 2975 4387 
Q 3406 4025 3406 3419 
Q 3406 3131 3298 2873 
Q 3191 2616 2906 2266 
Q 2828 2175 2409 1742 
Q 1991 1309 1228 531 
z
" transform="scale(0.015625)"/>
      </defs>
      <use xlink:href="#DejaVuSans-Oblique-70" transform="translate(0 0.375)"/>
      <use xlink:href="#DejaVuSans-31" transform="translate(63.476562 -16.03125) scale(0.7)"/>
      <use xlink:href="#DejaVuSans-d7" transform="translate(130.229492 0.375)"/>
      <use xlink:href="#DejaVuSans-Oblique-70" transform="translate(233.500977 0.375)"/>
      <use xlink:href="#DejaVuSans-32" transform="translate(296.977539 -16.03125) scale(0.7)"/>
     </g>
    </g>
   </g>
   <g id="matplotlib.axis_2">
    <g id="ytick_1">
     <g id="line2d_10">
      <defs>
       <path id="m8b9f1e7826" d="M 0 0 
L -3.5 0 
" style="stroke: #000000"/>
      </defs>
      <g>
       <use xlink:href="#m8b9f1e7826" x="62.03" y="187.015707" style="stroke: #000000"/>
      </g>
     </g>
     <g id="text_11">
      <!-- 0.0 -->
      <g transform="translate(32.765625 192.334613) scale(0.14 -0.14)">
       <use xlink:href="#DejaVuSans-30"/>
       <use xlink:href="#DejaVuSans-2e" transform="translate(63.623047 0)"/>
       <use xlink:href="#DejaVuSans-30" transform="translate(95.410156 0)"/>
      </g>
     </g>
    </g>
    <g id="ytick_2">
     <g id="line2d_11">
      <g>
       <use xlink:href="#m8b9f1e7826" x="62.03" y="153.716566" style="stroke: #000000"/>
      </g>
     </g>
     <g id="text_12">
      <!-- 0.2 -->
      <g transform="translate(32.765625 159.035472) scale(0.14 -0.14)">
       <use xlink:href="#DejaVuSans-30"/>
       <use xlink:href="#DejaVuSans-2e" transform="translate(63.623047 0)"/>
       <use xlink:href="#DejaVuSans-32" transform="translate(95.410156 0)"/>
      </g>
     </g>
    </g>
    <g id="ytick_3">
     <g id="line2d_12">
      <g>
       <use xlink:href="#m8b9f1e7826" x="62.03" y="120.417424" style="stroke: #000000"/>
      </g>
     </g>
     <g id="text_13">
      <!-- 0.4 -->
      <g transform="translate(32.765625 125.73633) scale(0.14 -0.14)">
       <defs>
        <path id="DejaVuSans-34" d="M 2419 4116 
L 825 1625 
L 2419 1625 
L 2419 4116 
z
M 2253 4666 
L 3047 4666 
L 3047 1625 
L 3713 1625 
L 3713 1100 
L 3047 1100 
L 3047 0 
L 2419 0 
L 2419 1100 
L 313 1100 
L 313 1709 
L 2253 4666 
z
" transform="scale(0.015625)"/>
       </defs>
       <use xlink:href="#DejaVuSans-30"/>
       <use xlink:href="#DejaVuSans-2e" transform="translate(63.623047 0)"/>
       <use xlink:href="#DejaVuSans-34" transform="translate(95.410156 0)"/>
      </g>
     </g>
    </g>
    <g id="ytick_4">
     <g id="line2d_13">
      <g>
       <use xlink:href="#m8b9f1e7826" x="62.03" y="87.118283" style="stroke: #000000"/>
      </g>
     </g>
     <g id="text_14">
      <!-- 0.6 -->
      <g transform="translate(32.765625 92.437189) scale(0.14 -0.14)">
       <defs>
        <path id="DejaVuSans-36" d="M 2113 2584 
Q 1688 2584 1439 2293 
Q 1191 2003 1191 1497 
Q 1191 994 1439 701 
Q 1688 409 2113 409 
Q 2538 409 2786 701 
Q 3034 994 3034 1497 
Q 3034 2003 2786 2293 
Q 2538 2584 2113 2584 
z
M 3366 4563 
L 3366 3988 
Q 3128 4100 2886 4159 
Q 2644 4219 2406 4219 
Q 1781 4219 1451 3797 
Q 1122 3375 1075 2522 
Q 1259 2794 1537 2939 
Q 1816 3084 2150 3084 
Q 2853 3084 3261 2657 
Q 3669 2231 3669 1497 
Q 3669 778 3244 343 
Q 2819 -91 2113 -91 
Q 1303 -91 875 529 
Q 447 1150 447 2328 
Q 447 3434 972 4092 
Q 1497 4750 2381 4750 
Q 2619 4750 2861 4703 
Q 3103 4656 3366 4563 
z
" transform="scale(0.015625)"/>
       </defs>
       <use xlink:href="#DejaVuSans-30"/>
       <use xlink:href="#DejaVuSans-2e" transform="translate(63.623047 0)"/>
       <use xlink:href="#DejaVuSans-36" transform="translate(95.410156 0)"/>
      </g>
     </g>
    </g>
    <g id="ytick_5">
     <g id="line2d_14">
      <g>
       <use xlink:href="#m8b9f1e7826" x="62.03" y="53.819141" style="stroke: #000000"/>
      </g>
     </g>
     <g id="text_15">
      <!-- 0.8 -->
      <g transform="translate(32.765625 59.138048) scale(0.14 -0.14)">
       <use xlink:href="#DejaVuSans-30"/>
       <use xlink:href="#DejaVuSans-2e" transform="translate(63.623047 0)"/>
       <use xlink:href="#DejaVuSans-38" transform="translate(95.410156 0)"/>
      </g>
     </g>
    </g>
    <g id="ytick_6">
     <g id="line2d_15">
      <g>
       <use xlink:href="#m8b9f1e7826" x="62.03" y="20.52" style="stroke: #000000"/>
      </g>
     </g>
     <g id="text_16">
      <!-- 1.0 -->
      <g transform="translate(32.765625 25.838906) scale(0.14 -0.14)">
       <use xlink:href="#DejaVuSans-31"/>
       <use xlink:href="#DejaVuSans-2e" transform="translate(63.623047 0)"/>
       <use xlink:href="#DejaVuSans-30" transform="translate(95.410156 0)"/>
      </g>
     </g>
    </g>
    <g id="text_17">
     <!-- Dependency F1 score -->
     <g transform="translate(25.854063 179.566916) rotate(-90) scale(0.14 -0.14)">
      <defs>
       <path id="DejaVuSans-44" d="M 1259 4147 
L 1259 519 
L 2022 519 
Q 2988 519 3436 956 
Q 3884 1394 3884 2338 
Q 3884 3275 3436 3711 
Q 2988 4147 2022 4147 
L 1259 4147 
z
M 628 4666 
L 1925 4666 
Q 3281 4666 3915 4102 
Q 4550 3538 4550 2338 
Q 4550 1131 3912 565 
Q 3275 0 1925 0 
L 628 0 
L 628 4666 
z
" transform="scale(0.015625)"/>
       <path id="DejaVuSans-65" d="M 3597 1894 
L 3597 1613 
L 953 1613 
Q 991 1019 1311 708 
Q 1631 397 2203 397 
Q 2534 397 2845 478 
Q 3156 559 3463 722 
L 3463 178 
Q 3153 47 2828 -22 
Q 2503 -91 2169 -91 
Q 1331 -91 842 396 
Q 353 884 353 1716 
Q 353 2575 817 3079 
Q 1281 3584 2069 3584 
Q 2775 3584 3186 3129 
Q 3597 2675 3597 1894 
z
M 3022 2063 
Q 3016 2534 2758 2815 
Q 2500 3097 2075 3097 
Q 1594 3097 1305 2825 
Q 1016 2553 972 2059 
L 3022 2063 
z
" transform="scale(0.015625)"/>
       <path id="DejaVuSans-70" d="M 1159 525 
L 1159 -1331 
L 581 -1331 
L 581 3500 
L 1159 3500 
L 1159 2969 
Q 1341 3281 1617 3432 
Q 1894 3584 2278 3584 
Q 2916 3584 3314 3078 
Q 3713 2572 3713 1747 
Q 3713 922 3314 415 
Q 2916 -91 2278 -91 
Q 1894 -91 1617 61 
Q 1341 213 1159 525 
z
M 3116 1747 
Q 3116 2381 2855 2742 
Q 2594 3103 2138 3103 
Q 1681 3103 1420 2742 
Q 1159 2381 1159 1747 
Q 1159 1113 1420 752 
Q 1681 391 2138 391 
Q 2594 391 2855 752 
Q 3116 1113 3116 1747 
z
" transform="scale(0.015625)"/>
       <path id="DejaVuSans-6e" d="M 3513 2113 
L 3513 0 
L 2938 0 
L 2938 2094 
Q 2938 2591 2744 2837 
Q 2550 3084 2163 3084 
Q 1697 3084 1428 2787 
Q 1159 2491 1159 1978 
L 1159 0 
L 581 0 
L 581 3500 
L 1159 3500 
L 1159 2956 
Q 1366 3272 1645 3428 
Q 1925 3584 2291 3584 
Q 2894 3584 3203 3211 
Q 3513 2838 3513 2113 
z
" transform="scale(0.015625)"/>
       <path id="DejaVuSans-64" d="M 2906 2969 
L 2906 4863 
L 3481 4863 
L 3481 0 
L 2906 0 
L 2906 525 
Q 2725 213 2448 61 
Q 2172 -91 1784 -91 
Q 1150 -91 751 415 
Q 353 922 353 1747 
Q 353 2572 751 3078 
Q 1150 3584 1784 3584 
Q 2172 3584 2448 3432 
Q 2725 3281 2906 2969 
z
M 947 1747 
Q 947 1113 1208 752 
Q 1469 391 1925 391 
Q 2381 391 2643 752 
Q 2906 1113 2906 1747 
Q 2906 2381 2643 2742 
Q 2381 3103 1925 3103 
Q 1469 3103 1208 2742 
Q 947 2381 947 1747 
z
" transform="scale(0.015625)"/>
       <path id="DejaVuSans-63" d="M 3122 3366 
L 3122 2828 
Q 2878 2963 2633 3030 
Q 2388 3097 2138 3097 
Q 1578 3097 1268 2742 
Q 959 2388 959 1747 
Q 959 1106 1268 751 
Q 1578 397 2138 397 
Q 2388 397 2633 464 
Q 2878 531 3122 666 
L 3122 134 
Q 2881 22 2623 -34 
Q 2366 -91 2075 -91 
Q 1284 -91 818 406 
Q 353 903 353 1747 
Q 353 2603 823 3093 
Q 1294 3584 2113 3584 
Q 2378 3584 2631 3529 
Q 2884 3475 3122 3366 
z
" transform="scale(0.015625)"/>
       <path id="DejaVuSans-79" d="M 2059 -325 
Q 1816 -950 1584 -1140 
Q 1353 -1331 966 -1331 
L 506 -1331 
L 506 -850 
L 844 -850 
Q 1081 -850 1212 -737 
Q 1344 -625 1503 -206 
L 1606 56 
L 191 3500 
L 800 3500 
L 1894 763 
L 2988 3500 
L 3597 3500 
L 2059 -325 
z
" transform="scale(0.015625)"/>
       <path id="DejaVuSans-46" d="M 628 4666 
L 3309 4666 
L 3309 4134 
L 1259 4134 
L 1259 2759 
L 3109 2759 
L 3109 2228 
L 1259 2228 
L 1259 0 
L 628 0 
L 628 4666 
z
" transform="scale(0.015625)"/>
       <path id="DejaVuSans-73" d="M 2834 3397 
L 2834 2853 
Q 2591 2978 2328 3040 
Q 2066 3103 1784 3103 
Q 1356 3103 1142 2972 
Q 928 2841 928 2578 
Q 928 2378 1081 2264 
Q 1234 2150 1697 2047 
L 1894 2003 
Q 2506 1872 2764 1633 
Q 3022 1394 3022 966 
Q 3022 478 2636 193 
Q 2250 -91 1575 -91 
Q 1294 -91 989 -36 
Q 684 19 347 128 
L 347 722 
Q 666 556 975 473 
Q 1284 391 1588 391 
Q 1994 391 2212 530 
Q 2431 669 2431 922 
Q 2431 1156 2273 1281 
Q 2116 1406 1581 1522 
L 1381 1569 
Q 847 1681 609 1914 
Q 372 2147 372 2553 
Q 372 3047 722 3315 
Q 1072 3584 1716 3584 
Q 2034 3584 2315 3537 
Q 2597 3491 2834 3397 
z
" transform="scale(0.015625)"/>
       <path id="DejaVuSans-6f" d="M 1959 3097 
Q 1497 3097 1228 2736 
Q 959 2375 959 1747 
Q 959 1119 1226 758 
Q 1494 397 1959 397 
Q 2419 397 2687 759 
Q 2956 1122 2956 1747 
Q 2956 2369 2687 2733 
Q 2419 3097 1959 3097 
z
M 1959 3584 
Q 2709 3584 3137 3096 
Q 3566 2609 3566 1747 
Q 3566 888 3137 398 
Q 2709 -91 1959 -91 
Q 1206 -91 779 398 
Q 353 888 353 1747 
Q 353 2609 779 3096 
Q 1206 3584 1959 3584 
z
" transform="scale(0.015625)"/>
       <path id="DejaVuSans-72" d="M 2631 2963 
Q 2534 3019 2420 3045 
Q 2306 3072 2169 3072 
Q 1681 3072 1420 2755 
Q 1159 2438 1159 1844 
L 1159 0 
L 581 0 
L 581 3500 
L 1159 3500 
L 1159 2956 
Q 1341 3275 1631 3429 
Q 1922 3584 2338 3584 
Q 2397 3584 2469 3576 
Q 2541 3569 2628 3553 
L 2631 2963 
z
" transform="scale(0.015625)"/>
      </defs>
      <use xlink:href="#DejaVuSans-44"/>
      <use xlink:href="#DejaVuSans-65" transform="translate(77.001953 0)"/>
      <use xlink:href="#DejaVuSans-70" transform="translate(138.525391 0)"/>
      <use xlink:href="#DejaVuSans-65" transform="translate(202.001953 0)"/>
      <use xlink:href="#DejaVuSans-6e" transform="translate(263.525391 0)"/>
      <use xlink:href="#DejaVuSans-64" transform="translate(326.904297 0)"/>
      <use xlink:href="#DejaVuSans-65" transform="translate(390.380859 0)"/>
      <use xlink:href="#DejaVuSans-6e" transform="translate(451.904297 0)"/>
      <use xlink:href="#DejaVuSans-63" transform="translate(515.283203 0)"/>
      <use xlink:href="#DejaVuSans-79" transform="translate(570.263672 0)"/>
      <use xlink:href="#DejaVuSans-20" transform="translate(629.443359 0)"/>
      <use xlink:href="#DejaVuSans-46" transform="translate(661.230469 0)"/>
      <use xlink:href="#DejaVuSans-31" transform="translate(718.75 0)"/>
      <use xlink:href="#DejaVuSans-20" transform="translate(782.373047 0)"/>
      <use xlink:href="#DejaVuSans-73" transform="translate(814.160156 0)"/>
      <use xlink:href="#DejaVuSans-63" transform="translate(866.259766 0)"/>
      <use xlink:href="#DejaVuSans-6f" transform="translate(921.240234 0)"/>
      <use xlink:href="#DejaVuSans-72" transform="translate(982.421875 0)"/>
      <use xlink:href="#DejaVuSans-65" transform="translate(1021.285156 0)"/>
     </g>
    </g>
   </g>
   <g id="patch_5">
    <path d="M 65.262 62.143927 
L 78.19 62.143927 
L 78.19 20.52 
L 65.262 20.52 
L 65.262 62.143927 
z
" clip-path="url(#p3217205e13)" style="fill: #3a7f58; stroke: #262626; stroke-width: 1.2; stroke-linejoin: miter"/>
   </g>
   <g id="line2d_16">
    <path d="M 71.726 62.143927 
L 71.726 82.95589 
" clip-path="url(#p3217205e13)" style="fill: none; stroke: #262626; stroke-width: 1.2"/>
   </g>
   <g id="line2d_17">
    <path d="M 71.726 20.52 
L 71.726 20.52 
" clip-path="url(#p3217205e13)" style="fill: none; stroke: #262626; stroke-width: 1.2"/>
   </g>
   <g id="line2d_18">
    <path d="M 68.494 82.95589 
L 74.958 82.95589 
" clip-path="url(#p3217205e13)" style="fill: none; stroke: #262626; stroke-width: 1.2; stroke-linecap: square"/>
   </g>
   <g id="line2d_19">
    <path d="M 68.494 20.52 
L 74.958 20.52 
" clip-path="url(#p3217205e13)" style="fill: none; stroke: #262626; stroke-width: 1.2; stroke-linecap: square"/>
   </g>
   <g id="line2d_20"/>
   <g id="patch_6">
    <path d="M 97.582 30.925982 
L 110.51 30.925982 
L 110.51 20.52 
L 97.582 20.52 
L 97.582 30.925982 
z
" clip-path="url(#p3217205e13)" style="fill: #3a7f58; stroke: #262626; stroke-width: 1.2; stroke-linejoin: miter"/>
   </g>
   <g id="line2d_21">
    <path d="M 104.046 30.925982 
L 104.046 30.925982 
" clip-path="url(#p3217205e13)" style="fill: none; stroke: #262626; stroke-width: 1.2"/>
   </g>
   <g id="line2d_22">
    <path d="M 104.046 20.52 
L 104.046 20.52 
" clip-path="url(#p3217205e13)" style="fill: none; stroke: #262626; stroke-width: 1.2"/>
   </g>
   <g id="line2d_23">
    <path d="M 100.814 30.925982 
L 107.278 30.925982 
" clip-path="url(#p3217205e13)" style="fill: none; stroke: #262626; stroke-width: 1.2; stroke-linecap: square"/>
   </g>
   <g id="line2d_24">
    <path d="M 100.814 20.52 
L 107.278 20.52 
" clip-path="url(#p3217205e13)" style="fill: none; stroke: #262626; stroke-width: 1.2; stroke-linecap: square"/>
   </g>
   <g id="line2d_25">
    <defs>
     <path id="m585cef5de7" d="M 0 2 
C 0.530406 2 1.03916 1.789267 1.414214 1.414214 
C 1.789267 1.03916 2 0.530406 2 0 
C 2 -0.530406 1.789267 -1.03916 1.414214 -1.414214 
C 1.03916 -1.789267 0.530406 -2 0 -2 
C -0.530406 -2 -1.03916 -1.789267 -1.414214 -1.414214 
C -1.789267 -1.03916 -2 -0.530406 -2 0 
C -2 0.530406 -1.789267 1.03916 -1.414214 1.414214 
C -1.03916 1.789267 -0.530406 2 0 2 
z
" style="stroke: #262626"/>
    </defs>
    <g clip-path="url(#p3217205e13)">
     <use xlink:href="#m585cef5de7" x="104.046" y="62.143927" style="fill-opacity: 0; stroke: #262626"/>
     <use xlink:href="#m585cef5de7" x="104.046" y="62.143927" style="fill-opacity: 0; stroke: #262626"/>
     <use xlink:href="#m585cef5de7" x="104.046" y="62.143927" style="fill-opacity: 0; stroke: #262626"/>
     <use xlink:href="#m585cef5de7" x="104.046" y="62.143927" style="fill-opacity: 0; stroke: #262626"/>
     <use xlink:href="#m585cef5de7" x="104.046" y="62.143927" style="fill-opacity: 0; stroke: #262626"/>
    </g>
   </g>
   <g id="patch_7">
    <path d="M 129.902 30.925982 
L 142.83 30.925982 
L 142.83 20.52 
L 129.902 20.52 
L 129.902 30.925982 
z
" clip-path="url(#p3217205e13)" style="fill: #3a7f58; stroke: #262626; stroke-width: 1.2; stroke-linejoin: miter"/>
   </g>
   <g id="line2d_26">
    <path d="M 136.366 30.925982 
L 136.366 30.925982 
" clip-path="url(#p3217205e13)" style="fill: none; stroke: #262626; stroke-width: 1.2"/>
   </g>
   <g id="line2d_27">
    <path d="M 136.366 20.52 
L 136.366 20.52 
" clip-path="url(#p3217205e13)" style="fill: none; stroke: #262626; stroke-width: 1.2"/>
   </g>
   <g id="line2d_28">
    <path d="M 133.134 30.925982 
L 139.598 30.925982 
" clip-path="url(#p3217205e13)" style="fill: none; stroke: #262626; stroke-width: 1.2; stroke-linecap: square"/>
   </g>
   <g id="line2d_29">
    <path d="M 133.134 20.52 
L 139.598 20.52 
" clip-path="url(#p3217205e13)" style="fill: none; stroke: #262626; stroke-width: 1.2; stroke-linecap: square"/>
   </g>
   <g id="line2d_30">
    <g clip-path="url(#p3217205e13)">
     <use xlink:href="#m585cef5de7" x="136.366" y="62.143927" style="fill-opacity: 0; stroke: #262626"/>
     <use xlink:href="#m585cef5de7" x="136.366" y="62.143927" style="fill-opacity: 0; stroke: #262626"/>
     <use xlink:href="#m585cef5de7" x="136.366" y="62.143927" style="fill-opacity: 0; stroke: #262626"/>
     <use xlink:href="#m585cef5de7" x="136.366" y="62.143927" style="fill-opacity: 0; stroke: #262626"/>
     <use xlink:href="#m585cef5de7" x="136.366" y="62.143927" style="fill-opacity: 0; stroke: #262626"/>
    </g>
   </g>
   <g id="patch_8">
    <path d="M 162.222 20.52 
L 175.15 20.52 
L 175.15 20.52 
L 162.222 20.52 
L 162.222 20.52 
z
" clip-path="url(#p3217205e13)" style="fill: #3a7f58; stroke: #262626; stroke-width: 1.2; stroke-linejoin: miter"/>
   </g>
   <g id="line2d_31">
    <path d="M 168.686 20.52 
L 168.686 20.52 
" clip-path="url(#p3217205e13)" style="fill: none; stroke: #262626; stroke-width: 1.2"/>
   </g>
   <g id="line2d_32">
    <path d="M 168.686 20.52 
L 168.686 20.52 
" clip-path="url(#p3217205e13)" style="fill: none; stroke: #262626; stroke-width: 1.2"/>
   </g>
   <g id="line2d_33">
    <path d="M 165.454 20.52 
L 171.918 20.52 
" clip-path="url(#p3217205e13)" style="fill: none; stroke: #262626; stroke-width: 1.2; stroke-linecap: square"/>
   </g>
   <g id="line2d_34">
    <path d="M 165.454 20.52 
L 171.918 20.52 
" clip-path="url(#p3217205e13)" style="fill: none; stroke: #262626; stroke-width: 1.2; stroke-linecap: square"/>
   </g>
   <g id="line2d_35">
    <g clip-path="url(#p3217205e13)">
     <use xlink:href="#m585cef5de7" x="168.686" y="62.143927" style="fill-opacity: 0; stroke: #262626"/>
     <use xlink:href="#m585cef5de7" x="168.686" y="62.143927" style="fill-opacity: 0; stroke: #262626"/>
     <use xlink:href="#m585cef5de7" x="168.686" y="62.143927" style="fill-opacity: 0; stroke: #262626"/>
    </g>
   </g>
   <g id="patch_9">
    <path d="M 194.542 20.52 
L 207.47 20.52 
L 207.47 20.52 
L 194.542 20.52 
L 194.542 20.52 
z
" clip-path="url(#p3217205e13)" style="fill: #3a7f58; stroke: #262626; stroke-width: 1.2; stroke-linejoin: miter"/>
   </g>
   <g id="line2d_36">
    <path d="M 201.006 20.52 
L 201.006 20.52 
" clip-path="url(#p3217205e13)" style="fill: none; stroke: #262626; stroke-width: 1.2"/>
   </g>
   <g id="line2d_37">
    <path d="M 201.006 20.52 
L 201.006 20.52 
" clip-path="url(#p3217205e13)" style="fill: none; stroke: #262626; stroke-width: 1.2"/>
   </g>
   <g id="line2d_38">
    <path d="M 197.774 20.52 
L 204.238 20.52 
" clip-path="url(#p3217205e13)" style="fill: none; stroke: #262626; stroke-width: 1.2; stroke-linecap: square"/>
   </g>
   <g id="line2d_39">
    <path d="M 197.774 20.52 
L 204.238 20.52 
" clip-path="url(#p3217205e13)" style="fill: none; stroke: #262626; stroke-width: 1.2; stroke-linecap: square"/>
   </g>
   <g id="line2d_40">
    <g clip-path="url(#p3217205e13)">
     <use xlink:href="#m585cef5de7" x="201.006" y="62.143927" style="fill-opacity: 0; stroke: #262626"/>
     <use xlink:href="#m585cef5de7" x="201.006" y="62.143927" style="fill-opacity: 0; stroke: #262626"/>
    </g>
   </g>
   <g id="patch_10">
    <path d="M 226.862 20.52 
L 239.79 20.52 
L 239.79 20.52 
L 226.862 20.52 
L 226.862 20.52 
z
" clip-path="url(#p3217205e13)" style="fill: #3a7f58; stroke: #262626; stroke-width: 1.2; stroke-linejoin: miter"/>
   </g>
   <g id="line2d_41">
    <path d="M 233.326 20.52 
L 233.326 20.52 
" clip-path="url(#p3217205e13)" style="fill: none; stroke: #262626; stroke-width: 1.2"/>
   </g>
   <g id="line2d_42">
    <path d="M 233.326 20.52 
L 233.326 20.52 
" clip-path="url(#p3217205e13)" style="fill: none; stroke: #262626; stroke-width: 1.2"/>
   </g>
   <g id="line2d_43">
    <path d="M 230.094 20.52 
L 236.558 20.52 
" clip-path="url(#p3217205e13)" style="fill: none; stroke: #262626; stroke-width: 1.2; stroke-linecap: square"/>
   </g>
   <g id="line2d_44">
    <path d="M 230.094 20.52 
L 236.558 20.52 
" clip-path="url(#p3217205e13)" style="fill: none; stroke: #262626; stroke-width: 1.2; stroke-linecap: square"/>
   </g>
   <g id="line2d_45">
    <g clip-path="url(#p3217205e13)">
     <use xlink:href="#m585cef5de7" x="233.326" y="62.143927" style="fill-opacity: 0; stroke: #262626"/>
     <use xlink:href="#m585cef5de7" x="233.326" y="62.143927" style="fill-opacity: 0; stroke: #262626"/>
     <use xlink:href="#m585cef5de7" x="233.326" y="62.143927" style="fill-opacity: 0; stroke: #262626"/>
    </g>
   </g>
   <g id="patch_11">
    <path d="M 259.182 20.52 
L 272.11 20.52 
L 272.11 20.52 
L 259.182 20.52 
L 259.182 20.52 
z
" clip-path="url(#p3217205e13)" style="fill: #3a7f58; stroke: #262626; stroke-width: 1.2; stroke-linejoin: miter"/>
   </g>
   <g id="line2d_46">
    <path d="M 265.646 20.52 
L 265.646 20.52 
" clip-path="url(#p3217205e13)" style="fill: none; stroke: #262626; stroke-width: 1.2"/>
   </g>
   <g id="line2d_47">
    <path d="M 265.646 20.52 
L 265.646 20.52 
" clip-path="url(#p3217205e13)" style="fill: none; stroke: #262626; stroke-width: 1.2"/>
   </g>
   <g id="line2d_48">
    <path d="M 262.414 20.52 
L 268.878 20.52 
" clip-path="url(#p3217205e13)" style="fill: none; stroke: #262626; stroke-width: 1.2; stroke-linecap: square"/>
   </g>
   <g id="line2d_49">
    <path d="M 262.414 20.52 
L 268.878 20.52 
" clip-path="url(#p3217205e13)" style="fill: none; stroke: #262626; stroke-width: 1.2; stroke-linecap: square"/>
   </g>
   <g id="line2d_50"/>
   <g id="patch_12">
    <path d="M 291.502 20.52 
L 304.43 20.52 
L 304.43 20.52 
L 291.502 20.52 
L 291.502 20.52 
z
" clip-path="url(#p3217205e13)" style="fill: #3a7f58; stroke: #262626; stroke-width: 1.2; stroke-linejoin: miter"/>
   </g>
   <g id="line2d_51">
    <path d="M 297.966 20.52 
L 297.966 20.52 
" clip-path="url(#p3217205e13)" style="fill: none; stroke: #262626; stroke-width: 1.2"/>
   </g>
   <g id="line2d_52">
    <path d="M 297.966 20.52 
L 297.966 20.52 
" clip-path="url(#p3217205e13)" style="fill: none; stroke: #262626; stroke-width: 1.2"/>
   </g>
   <g id="line2d_53">
    <path d="M 294.734 20.52 
L 301.198 20.52 
" clip-path="url(#p3217205e13)" style="fill: none; stroke: #262626; stroke-width: 1.2; stroke-linecap: square"/>
   </g>
   <g id="line2d_54">
    <path d="M 294.734 20.52 
L 301.198 20.52 
" clip-path="url(#p3217205e13)" style="fill: none; stroke: #262626; stroke-width: 1.2; stroke-linecap: square"/>
   </g>
   <g id="line2d_55">
    <g clip-path="url(#p3217205e13)">
     <use xlink:href="#m585cef5de7" x="297.966" y="62.143927" style="fill-opacity: 0; stroke: #262626"/>
    </g>
   </g>
   <g id="patch_13">
    <path d="M 323.822 20.52 
L 336.75 20.52 
L 336.75 20.52 
L 323.822 20.52 
L 323.822 20.52 
z
" clip-path="url(#p3217205e13)" style="fill: #3a7f58; stroke: #262626; stroke-width: 1.2; stroke-linejoin: miter"/>
   </g>
   <g id="line2d_56">
    <path d="M 330.286 20.52 
L 330.286 20.52 
" clip-path="url(#p3217205e13)" style="fill: none; stroke: #262626; stroke-width: 1.2"/>
   </g>
   <g id="line2d_57">
    <path d="M 330.286 20.52 
L 330.286 20.52 
" clip-path="url(#p3217205e13)" style="fill: none; stroke: #262626; stroke-width: 1.2"/>
   </g>
   <g id="line2d_58">
    <path d="M 327.054 20.52 
L 333.518 20.52 
" clip-path="url(#p3217205e13)" style="fill: none; stroke: #262626; stroke-width: 1.2; stroke-linecap: square"/>
   </g>
   <g id="line2d_59">
    <path d="M 327.054 20.52 
L 333.518 20.52 
" clip-path="url(#p3217205e13)" style="fill: none; stroke: #262626; stroke-width: 1.2; stroke-linecap: square"/>
   </g>
   <g id="line2d_60">
    <g clip-path="url(#p3217205e13)">
     <use xlink:href="#m585cef5de7" x="330.286" y="62.143927" style="fill-opacity: 0; stroke: #262626"/>
     <use xlink:href="#m585cef5de7" x="330.286" y="62.143927" style="fill-opacity: 0; stroke: #262626"/>
    </g>
   </g>
   <g id="patch_14">
    <path d="M 78.19 133.49923 
L 91.118 133.49923 
L 91.118 112.306095 
L 78.19 112.306095 
L 78.19 133.49923 
z
" clip-path="url(#p3217205e13)" style="fill: #701010; stroke: #262626; stroke-width: 1.2; stroke-linejoin: miter"/>
   </g>
   <g id="line2d_61">
    <path d="M 84.654 133.49923 
L 84.654 150.016661 
" clip-path="url(#p3217205e13)" style="fill: none; stroke: #262626; stroke-width: 1.2"/>
   </g>
   <g id="line2d_62">
    <path d="M 84.654 112.306095 
L 84.654 103.767853 
" clip-path="url(#p3217205e13)" style="fill: none; stroke: #262626; stroke-width: 1.2"/>
   </g>
   <g id="line2d_63">
    <path d="M 81.422 150.016661 
L 87.886 150.016661 
" clip-path="url(#p3217205e13)" style="fill: none; stroke: #262626; stroke-width: 1.2; stroke-linecap: square"/>
   </g>
   <g id="line2d_64">
    <path d="M 81.422 103.767853 
L 87.886 103.767853 
" clip-path="url(#p3217205e13)" style="fill: none; stroke: #262626; stroke-width: 1.2; stroke-linecap: square"/>
   </g>
   <g id="line2d_65"/>
   <g id="patch_15">
    <path d="M 110.51 117.788545 
L 123.438 117.788545 
L 123.438 102.380389 
L 110.51 102.380389 
L 110.51 117.788545 
z
" clip-path="url(#p3217205e13)" style="fill: #701010; stroke: #262626; stroke-width: 1.2; stroke-linejoin: miter"/>
   </g>
   <g id="line2d_66">
    <path d="M 116.974 117.788545 
L 116.974 135.786259 
" clip-path="url(#p3217205e13)" style="fill: none; stroke: #262626; stroke-width: 1.2"/>
   </g>
   <g id="line2d_67">
    <path d="M 116.974 102.380389 
L 116.974 84.55681 
" clip-path="url(#p3217205e13)" style="fill: none; stroke: #262626; stroke-width: 1.2"/>
   </g>
   <g id="line2d_68">
    <path d="M 113.742 135.786259 
L 120.206 135.786259 
" clip-path="url(#p3217205e13)" style="fill: none; stroke: #262626; stroke-width: 1.2; stroke-linecap: square"/>
   </g>
   <g id="line2d_69">
    <path d="M 113.742 84.55681 
L 120.206 84.55681 
" clip-path="url(#p3217205e13)" style="fill: none; stroke: #262626; stroke-width: 1.2; stroke-linecap: square"/>
   </g>
   <g id="line2d_70">
    <g clip-path="url(#p3217205e13)">
     <use xlink:href="#m585cef5de7" x="116.974" y="143.582044" style="fill-opacity: 0; stroke: #262626"/>
    </g>
   </g>
   <g id="patch_16">
    <path d="M 142.83 129.104157 
L 155.758 129.104157 
L 155.758 120.417424 
L 142.83 120.417424 
L 142.83 129.104157 
z
" clip-path="url(#p3217205e13)" style="fill: #701010; stroke: #262626; stroke-width: 1.2; stroke-linejoin: miter"/>
   </g>
   <g id="line2d_71">
    <path d="M 149.294 129.104157 
L 149.294 141.085857 
" clip-path="url(#p3217205e13)" style="fill: none; stroke: #262626; stroke-width: 1.2"/>
   </g>
   <g id="line2d_72">
    <path d="M 149.294 120.417424 
L 149.294 108.664786 
" clip-path="url(#p3217205e13)" style="fill: none; stroke: #262626; stroke-width: 1.2"/>
   </g>
   <g id="line2d_73">
    <path d="M 146.062 141.085857 
L 152.526 141.085857 
" clip-path="url(#p3217205e13)" style="fill: none; stroke: #262626; stroke-width: 1.2; stroke-linecap: square"/>
   </g>
   <g id="line2d_74">
    <path d="M 146.062 108.664786 
L 152.526 108.664786 
" clip-path="url(#p3217205e13)" style="fill: none; stroke: #262626; stroke-width: 1.2; stroke-linecap: square"/>
   </g>
   <g id="line2d_75">
    <g clip-path="url(#p3217205e13)">
     <use xlink:href="#m585cef5de7" x="149.294" y="91.875303" style="fill-opacity: 0; stroke: #262626"/>
    </g>
   </g>
   <g id="patch_17">
    <path d="M 175.15 120.417424 
L 188.078 120.417424 
L 188.078 103.767853 
L 175.15 103.767853 
L 175.15 120.417424 
z
" clip-path="url(#p3217205e13)" style="fill: #701010; stroke: #262626; stroke-width: 1.2; stroke-linejoin: miter"/>
   </g>
   <g id="line2d_76">
    <path d="M 181.614 120.417424 
L 181.614 139.445505 
" clip-path="url(#p3217205e13)" style="fill: none; stroke: #262626; stroke-width: 1.2"/>
   </g>
   <g id="line2d_77">
    <path d="M 181.614 103.767853 
L 181.614 84.55681 
" clip-path="url(#p3217205e13)" style="fill: none; stroke: #262626; stroke-width: 1.2"/>
   </g>
   <g id="line2d_78">
    <path d="M 178.382 139.445505 
L 184.846 139.445505 
" clip-path="url(#p3217205e13)" style="fill: none; stroke: #262626; stroke-width: 1.2; stroke-linecap: square"/>
   </g>
   <g id="line2d_79">
    <path d="M 178.382 84.55681 
L 184.846 84.55681 
" clip-path="url(#p3217205e13)" style="fill: none; stroke: #262626; stroke-width: 1.2; stroke-linecap: square"/>
   </g>
   <g id="line2d_80">
    <g clip-path="url(#p3217205e13)">
     <use xlink:href="#m585cef5de7" x="181.614" y="187.015707" style="fill-opacity: 0; stroke: #262626"/>
    </g>
   </g>
   <g id="patch_18">
    <path d="M 207.47 131.517138 
L 220.398 131.517138 
L 220.398 116.912251 
L 207.47 116.912251 
L 207.47 131.517138 
z
" clip-path="url(#p3217205e13)" style="fill: #701010; stroke: #262626; stroke-width: 1.2; stroke-linejoin: miter"/>
   </g>
   <g id="line2d_81">
    <path d="M 213.934 131.517138 
L 213.934 142.616852 
" clip-path="url(#p3217205e13)" style="fill: none; stroke: #262626; stroke-width: 1.2"/>
   </g>
   <g id="line2d_82">
    <path d="M 213.934 116.912251 
L 213.934 103.767853 
" clip-path="url(#p3217205e13)" style="fill: none; stroke: #262626; stroke-width: 1.2"/>
   </g>
   <g id="line2d_83">
    <path d="M 210.702 142.616852 
L 217.166 142.616852 
" clip-path="url(#p3217205e13)" style="fill: none; stroke: #262626; stroke-width: 1.2; stroke-linecap: square"/>
   </g>
   <g id="line2d_84">
    <path d="M 210.702 103.767853 
L 217.166 103.767853 
" clip-path="url(#p3217205e13)" style="fill: none; stroke: #262626; stroke-width: 1.2; stroke-linecap: square"/>
   </g>
   <g id="line2d_85"/>
   <g id="patch_19">
    <path d="M 239.79 145.707113 
L 252.718 145.707113 
L 252.718 133.737081 
L 239.79 133.737081 
L 239.79 145.707113 
z
" clip-path="url(#p3217205e13)" style="fill: #701010; stroke: #262626; stroke-width: 1.2; stroke-linejoin: miter"/>
   </g>
   <g id="line2d_86">
    <path d="M 246.254 145.707113 
L 246.254 152.862741 
" clip-path="url(#p3217205e13)" style="fill: none; stroke: #262626; stroke-width: 1.2"/>
   </g>
   <g id="line2d_87">
    <path d="M 246.254 133.737081 
L 246.254 120.417424 
" clip-path="url(#p3217205e13)" style="fill: none; stroke: #262626; stroke-width: 1.2"/>
   </g>
   <g id="line2d_88">
    <path d="M 243.022 152.862741 
L 249.486 152.862741 
" clip-path="url(#p3217205e13)" style="fill: none; stroke: #262626; stroke-width: 1.2; stroke-linecap: square"/>
   </g>
   <g id="line2d_89">
    <path d="M 243.022 120.417424 
L 249.486 120.417424 
" clip-path="url(#p3217205e13)" style="fill: none; stroke: #262626; stroke-width: 1.2; stroke-linecap: square"/>
   </g>
   <g id="line2d_90"/>
   <g id="patch_20">
    <path d="M 272.11 124.579817 
L 285.038 124.579817 
L 285.038 108.664786 
L 272.11 108.664786 
L 272.11 124.579817 
z
" clip-path="url(#p3217205e13)" style="fill: #701010; stroke: #262626; stroke-width: 1.2; stroke-linejoin: miter"/>
   </g>
   <g id="line2d_91">
    <path d="M 278.574 124.579817 
L 278.574 143.582044 
" clip-path="url(#p3217205e13)" style="fill: none; stroke: #262626; stroke-width: 1.2"/>
   </g>
   <g id="line2d_92">
    <path d="M 278.574 108.664786 
L 278.574 98.217997 
" clip-path="url(#p3217205e13)" style="fill: none; stroke: #262626; stroke-width: 1.2"/>
   </g>
   <g id="line2d_93">
    <path d="M 275.342 143.582044 
L 281.806 143.582044 
" clip-path="url(#p3217205e13)" style="fill: none; stroke: #262626; stroke-width: 1.2; stroke-linecap: square"/>
   </g>
   <g id="line2d_94">
    <path d="M 275.342 98.217997 
L 281.806 98.217997 
" clip-path="url(#p3217205e13)" style="fill: none; stroke: #262626; stroke-width: 1.2; stroke-linecap: square"/>
   </g>
   <g id="line2d_95"/>
   <g id="patch_21">
    <path d="M 304.43 139.855593 
L 317.358 139.855593 
L 317.358 137.683646 
L 304.43 137.683646 
L 304.43 139.855593 
z
" clip-path="url(#p3217205e13)" style="fill: #701010; stroke: #262626; stroke-width: 1.2; stroke-linejoin: miter"/>
   </g>
   <g id="line2d_96">
    <path d="M 310.894 139.855593 
L 310.894 142.616852 
" clip-path="url(#p3217205e13)" style="fill: none; stroke: #262626; stroke-width: 1.2"/>
   </g>
   <g id="line2d_97">
    <path d="M 310.894 137.683646 
L 310.894 135.786259 
" clip-path="url(#p3217205e13)" style="fill: none; stroke: #262626; stroke-width: 1.2"/>
   </g>
   <g id="line2d_98">
    <path d="M 307.662 142.616852 
L 314.126 142.616852 
" clip-path="url(#p3217205e13)" style="fill: none; stroke: #262626; stroke-width: 1.2; stroke-linecap: square"/>
   </g>
   <g id="line2d_99">
    <path d="M 307.662 135.786259 
L 314.126 135.786259 
" clip-path="url(#p3217205e13)" style="fill: none; stroke: #262626; stroke-width: 1.2; stroke-linecap: square"/>
   </g>
   <g id="line2d_100">
    <g clip-path="url(#p3217205e13)">
     <use xlink:href="#m585cef5de7" x="310.894" y="144.049073" style="fill-opacity: 0; stroke: #262626"/>
     <use xlink:href="#m585cef5de7" x="310.894" y="133.737081" style="fill-opacity: 0; stroke: #262626"/>
     <use xlink:href="#m585cef5de7" x="310.894" y="133.737081" style="fill-opacity: 0; stroke: #262626"/>
     <use xlink:href="#m585cef5de7" x="310.894" y="133.737081" style="fill-opacity: 0; stroke: #262626"/>
    </g>
   </g>
   <g id="patch_22">
    <path d="M 336.75 155.48662 
L 349.678 155.48662 
L 349.678 149.752382 
L 336.75 149.752382 
L 336.75 155.48662 
z
" clip-path="url(#p3217205e13)" style="fill: #701010; stroke: #262626; stroke-width: 1.2; stroke-linejoin: miter"/>
   </g>
   <g id="line2d_101">
    <path d="M 343.214 155.48662 
L 343.214 159.832734 
" clip-path="url(#p3217205e13)" style="fill: none; stroke: #262626; stroke-width: 1.2"/>
   </g>
   <g id="line2d_102">
    <path d="M 343.214 149.752382 
L 343.214 144.049073 
" clip-path="url(#p3217205e13)" style="fill: none; stroke: #262626; stroke-width: 1.2"/>
   </g>
   <g id="line2d_103">
    <path d="M 339.982 159.832734 
L 346.446 159.832734 
" clip-path="url(#p3217205e13)" style="fill: none; stroke: #262626; stroke-width: 1.2; stroke-linecap: square"/>
   </g>
   <g id="line2d_104">
    <path d="M 339.982 144.049073 
L 346.446 144.049073 
" clip-path="url(#p3217205e13)" style="fill: none; stroke: #262626; stroke-width: 1.2; stroke-linecap: square"/>
   </g>
   <g id="line2d_105">
    <g clip-path="url(#p3217205e13)">
     <use xlink:href="#m585cef5de7" x="343.214" y="139.445505" style="fill-opacity: 0; stroke: #262626"/>
    </g>
   </g>
   <g id="line2d_106">
    <path d="M 65.262 20.52 
L 78.19 20.52 
" clip-path="url(#p3217205e13)" style="fill: none; stroke: #262626; stroke-width: 1.2"/>
   </g>
   <g id="line2d_107">
    <path d="M 97.582 20.52 
L 110.51 20.52 
" clip-path="url(#p3217205e13)" style="fill: none; stroke: #262626; stroke-width: 1.2"/>
   </g>
   <g id="line2d_108">
    <path d="M 129.902 20.52 
L 142.83 20.52 
" clip-path="url(#p3217205e13)" style="fill: none; stroke: #262626; stroke-width: 1.2"/>
   </g>
   <g id="line2d_109">
    <path d="M 162.222 20.52 
L 175.15 20.52 
" clip-path="url(#p3217205e13)" style="fill: none; stroke: #262626; stroke-width: 1.2"/>
   </g>
   <g id="line2d_110">
    <path d="M 194.542 20.52 
L 207.47 20.52 
" clip-path="url(#p3217205e13)" style="fill: none; stroke: #262626; stroke-width: 1.2"/>
   </g>
   <g id="line2d_111">
    <path d="M 226.862 20.52 
L 239.79 20.52 
" clip-path="url(#p3217205e13)" style="fill: none; stroke: #262626; stroke-width: 1.2"/>
   </g>
   <g id="line2d_112">
    <path d="M 259.182 20.52 
L 272.11 20.52 
" clip-path="url(#p3217205e13)" style="fill: none; stroke: #262626; stroke-width: 1.2"/>
   </g>
   <g id="line2d_113">
    <path d="M 291.502 20.52 
L 304.43 20.52 
" clip-path="url(#p3217205e13)" style="fill: none; stroke: #262626; stroke-width: 1.2"/>
   </g>
   <g id="line2d_114">
    <path d="M 323.822 20.52 
L 336.75 20.52 
" clip-path="url(#p3217205e13)" style="fill: none; stroke: #262626; stroke-width: 1.2"/>
   </g>
   <g id="line2d_115">
    <path d="M 78.19 123.444619 
L 91.118 123.444619 
" clip-path="url(#p3217205e13)" style="fill: none; stroke: #262626; stroke-width: 1.2"/>
   </g>
   <g id="line2d_116">
    <path d="M 110.51 112.915969 
L 123.438 112.915969 
" clip-path="url(#p3217205e13)" style="fill: none; stroke: #262626; stroke-width: 1.2"/>
   </g>
   <g id="line2d_117">
    <path d="M 142.83 124.084294 
L 155.758 124.084294 
" clip-path="url(#p3217205e13)" style="fill: none; stroke: #262626; stroke-width: 1.2"/>
   </g>
   <g id="line2d_118">
    <path d="M 175.15 115.660404 
L 188.078 115.660404 
" clip-path="url(#p3217205e13)" style="fill: none; stroke: #262626; stroke-width: 1.2"/>
   </g>
   <g id="line2d_119">
    <path d="M 207.47 126.471814 
L 220.398 126.471814 
" clip-path="url(#p3217205e13)" style="fill: none; stroke: #262626; stroke-width: 1.2"/>
   </g>
   <g id="line2d_120">
    <path d="M 239.79 141.085857 
L 252.718 141.085857 
" clip-path="url(#p3217205e13)" style="fill: none; stroke: #262626; stroke-width: 1.2"/>
   </g>
   <g id="line2d_121">
    <path d="M 272.11 120.417424 
L 285.038 120.417424 
" clip-path="url(#p3217205e13)" style="fill: none; stroke: #262626; stroke-width: 1.2"/>
   </g>
   <g id="line2d_122">
    <path d="M 304.43 139.445505 
L 317.358 139.445505 
" clip-path="url(#p3217205e13)" style="fill: none; stroke: #262626; stroke-width: 1.2"/>
   </g>
   <g id="line2d_123">
    <path d="M 336.75 152.41336 
L 349.678 152.41336 
" clip-path="url(#p3217205e13)" style="fill: none; stroke: #262626; stroke-width: 1.2"/>
   </g>
   <g id="patch_23">
    <path d="M 62.03 187.015707 
L 62.03 20.52 
" style="fill: none; stroke: #000000; stroke-linejoin: miter; stroke-linecap: square"/>
   </g>
   <g id="patch_24">
    <path d="M 62.03 187.015707 
L 352.91 187.015707 
" style="fill: none; stroke: #000000; stroke-linejoin: miter; stroke-linecap: square"/>
   </g>
   <g id="legend_1">
    <g id="text_18">
     <!-- Method -->
     <g transform="translate(398.1125 43.757812) scale(0.14 -0.14)">
      <defs>
       <path id="DejaVuSans-4d" d="M 628 4666 
L 1569 4666 
L 2759 1491 
L 3956 4666 
L 4897 4666 
L 4897 0 
L 4281 0 
L 4281 4097 
L 3078 897 
L 2444 897 
L 1241 4097 
L 1241 0 
L 628 0 
L 628 4666 
z
" transform="scale(0.015625)"/>
       <path id="DejaVuSans-74" d="M 1172 4494 
L 1172 3500 
L 2356 3500 
L 2356 3053 
L 1172 3053 
L 1172 1153 
Q 1172 725 1289 603 
Q 1406 481 1766 481 
L 2356 481 
L 2356 0 
L 1766 0 
Q 1100 0 847 248 
Q 594 497 594 1153 
L 594 3053 
L 172 3053 
L 172 3500 
L 594 3500 
L 594 4494 
L 1172 4494 
z
" transform="scale(0.015625)"/>
       <path id="DejaVuSans-68" d="M 3513 2113 
L 3513 0 
L 2938 0 
L 2938 2094 
Q 2938 2591 2744 2837 
Q 2550 3084 2163 3084 
Q 1697 3084 1428 2787 
Q 1159 2491 1159 1978 
L 1159 0 
L 581 0 
L 581 4863 
L 1159 4863 
L 1159 2956 
Q 1366 3272 1645 3428 
Q 1925 3584 2291 3584 
Q 2894 3584 3203 3211 
Q 3513 2838 3513 2113 
z
" transform="scale(0.015625)"/>
      </defs>
      <use xlink:href="#DejaVuSans-4d"/>
      <use xlink:href="#DejaVuSans-65" transform="translate(86.279297 0)"/>
      <use xlink:href="#DejaVuSans-74" transform="translate(147.802734 0)"/>
      <use xlink:href="#DejaVuSans-68" transform="translate(187.011719 0)"/>
      <use xlink:href="#DejaVuSans-6f" transform="translate(250.390625 0)"/>
      <use xlink:href="#DejaVuSans-64" transform="translate(311.572266 0)"/>
     </g>
    </g>
    <g id="patch_25">
     <path d="M 365.51 64.307187 
L 393.51 64.307187 
L 393.51 54.507188 
L 365.51 54.507188 
z
" style="fill: #3a7f58; stroke: #262626; stroke-width: 1.2; stroke-linejoin: miter"/>
    </g>
    <g id="text_19">
     <!-- PhyloStage -->
     <g transform="translate(404.71 64.307187) scale(0.14 -0.14)">
      <defs>
       <path id="DejaVuSans-50" d="M 1259 4147 
L 1259 2394 
L 2053 2394 
Q 2494 2394 2734 2622 
Q 2975 2850 2975 3272 
Q 2975 3691 2734 3919 
Q 2494 4147 2053 4147 
L 1259 4147 
z
M 628 4666 
L 2053 4666 
Q 2838 4666 3239 4311 
Q 3641 3956 3641 3272 
Q 3641 2581 3239 2228 
Q 2838 1875 2053 1875 
L 1259 1875 
L 1259 0 
L 628 0 
L 628 4666 
z
" transform="scale(0.015625)"/>
       <path id="DejaVuSans-6c" d="M 603 4863 
L 1178 4863 
L 1178 0 
L 603 0 
L 603 4863 
z
" transform="scale(0.015625)"/>
       <path id="DejaVuSans-53" d="M 3425 4513 
L 3425 3897 
Q 3066 4069 2747 4153 
Q 2428 4238 2131 4238 
Q 1616 4238 1336 4038 
Q 1056 3838 1056 3469 
Q 1056 3159 1242 3001 
Q 1428 2844 1947 2747 
L 2328 2669 
Q 3034 2534 3370 2195 
Q 3706 1856 3706 1288 
Q 3706 609 3251 259 
Q 2797 -91 1919 -91 
Q 1588 -91 1214 -16 
Q 841 59 441 206 
L 441 856 
Q 825 641 1194 531 
Q 1563 422 1919 422 
Q 2459 422 2753 634 
Q 3047 847 3047 1241 
Q 3047 1584 2836 1778 
Q 2625 1972 2144 2069 
L 1759 2144 
Q 1053 2284 737 2584 
Q 422 2884 422 3419 
Q 422 4038 858 4394 
Q 1294 4750 2059 4750 
Q 2388 4750 2728 4690 
Q 3069 4631 3425 4513 
z
" transform="scale(0.015625)"/>
       <path id="DejaVuSans-61" d="M 2194 1759 
Q 1497 1759 1228 1600 
Q 959 1441 959 1056 
Q 959 750 1161 570 
Q 1363 391 1709 391 
Q 2188 391 2477 730 
Q 2766 1069 2766 1631 
L 2766 1759 
L 2194 1759 
z
M 3341 1997 
L 3341 0 
L 2766 0 
L 2766 531 
Q 2569 213 2275 61 
Q 1981 -91 1556 -91 
Q 1019 -91 701 211 
Q 384 513 384 1019 
Q 384 1609 779 1909 
Q 1175 2209 1959 2209 
L 2766 2209 
L 2766 2266 
Q 2766 2663 2505 2880 
Q 2244 3097 1772 3097 
Q 1472 3097 1187 3025 
Q 903 2953 641 2809 
L 641 3341 
Q 956 3463 1253 3523 
Q 1550 3584 1831 3584 
Q 2591 3584 2966 3190 
Q 3341 2797 3341 1997 
z
" transform="scale(0.015625)"/>
       <path id="DejaVuSans-67" d="M 2906 1791 
Q 2906 2416 2648 2759 
Q 2391 3103 1925 3103 
Q 1463 3103 1205 2759 
Q 947 2416 947 1791 
Q 947 1169 1205 825 
Q 1463 481 1925 481 
Q 2391 481 2648 825 
Q 2906 1169 2906 1791 
z
M 3481 434 
Q 3481 -459 3084 -895 
Q 2688 -1331 1869 -1331 
Q 1566 -1331 1297 -1286 
Q 1028 -1241 775 -1147 
L 775 -588 
Q 1028 -725 1275 -790 
Q 1522 -856 1778 -856 
Q 2344 -856 2625 -561 
Q 2906 -266 2906 331 
L 2906 616 
Q 2728 306 2450 153 
Q 2172 0 1784 0 
Q 1141 0 747 490 
Q 353 981 353 1791 
Q 353 2603 747 3093 
Q 1141 3584 1784 3584 
Q 2172 3584 2450 3431 
Q 2728 3278 2906 2969 
L 2906 3500 
L 3481 3500 
L 3481 434 
z
" transform="scale(0.015625)"/>
      </defs>
      <use xlink:href="#DejaVuSans-50"/>
      <use xlink:href="#DejaVuSans-68" transform="translate(60.302734 0)"/>
      <use xlink:href="#DejaVuSans-79" transform="translate(123.681641 0)"/>
      <use xlink:href="#DejaVuSans-6c" transform="translate(182.861328 0)"/>
      <use xlink:href="#DejaVuSans-6f" transform="translate(210.644531 0)"/>
      <use xlink:href="#DejaVuSans-53" transform="translate(271.826172 0)"/>
      <use xlink:href="#DejaVuSans-74" transform="translate(335.302734 0)"/>
      <use xlink:href="#DejaVuSans-61" transform="translate(374.511719 0)"/>
      <use xlink:href="#DejaVuSans-67" transform="translate(435.791016 0)"/>
      <use xlink:href="#DejaVuSans-65" transform="translate(499.267578 0)"/>
     </g>
    </g>
    <g id="patch_26">
     <path d="M 365.51 84.856562 
L 393.51 84.856562 
L 393.51 75.056562 
L 365.51 75.056562 
z
" style="fill: #701010; stroke: #262626; stroke-width: 1.2; stroke-linejoin: miter"/>
    </g>
    <g id="text_20">
     <!-- MASTRO -->
     <g transform="translate(404.71 84.856562) scale(0.14 -0.14)">
      <defs>
       <path id="DejaVuSans-41" d="M 2188 4044 
L 1331 1722 
L 3047 1722 
L 2188 4044 
z
M 1831 4666 
L 2547 4666 
L 4325 0 
L 3669 0 
L 3244 1197 
L 1141 1197 
L 716 0 
L 50 0 
L 1831 4666 
z
" transform="scale(0.015625)"/>
       <path id="DejaVuSans-54" d="M -19 4666 
L 3928 4666 
L 3928 4134 
L 2272 4134 
L 2272 0 
L 1638 0 
L 1638 4134 
L -19 4134 
L -19 4666 
z
" transform="scale(0.015625)"/>
       <path id="DejaVuSans-52" d="M 2841 2188 
Q 3044 2119 3236 1894 
Q 3428 1669 3622 1275 
L 4263 0 
L 3584 0 
L 2988 1197 
Q 2756 1666 2539 1819 
Q 2322 1972 1947 1972 
L 1259 1972 
L 1259 0 
L 628 0 
L 628 4666 
L 2053 4666 
Q 2853 4666 3247 4331 
Q 3641 3997 3641 3322 
Q 3641 2881 3436 2590 
Q 3231 2300 2841 2188 
z
M 1259 4147 
L 1259 2491 
L 2053 2491 
Q 2509 2491 2742 2702 
Q 2975 2913 2975 3322 
Q 2975 3731 2742 3939 
Q 2509 4147 2053 4147 
L 1259 4147 
z
" transform="scale(0.015625)"/>
       <path id="DejaVuSans-4f" d="M 2522 4238 
Q 1834 4238 1429 3725 
Q 1025 3213 1025 2328 
Q 1025 1447 1429 934 
Q 1834 422 2522 422 
Q 3209 422 3611 934 
Q 4013 1447 4013 2328 
Q 4013 3213 3611 3725 
Q 3209 4238 2522 4238 
z
M 2522 4750 
Q 3503 4750 4090 4092 
Q 4678 3434 4678 2328 
Q 4678 1225 4090 567 
Q 3503 -91 2522 -91 
Q 1538 -91 948 565 
Q 359 1222 359 2328 
Q 359 3434 948 4092 
Q 1538 4750 2522 4750 
z
" transform="scale(0.015625)"/>
      </defs>
      <use xlink:href="#DejaVuSans-4d"/>
      <use xlink:href="#DejaVuSans-41" transform="translate(86.279297 0)"/>
      <use xlink:href="#DejaVuSans-53" transform="translate(154.6875 0)"/>
      <use xlink:href="#DejaVuSans-54" transform="translate(218.164062 0)"/>
      <use xlink:href="#DejaVuSans-52" transform="translate(279.248047 0)"/>
      <use xlink:href="#DejaVuSans-4f" transform="translate(348.730469 0)"/>
     </g>
    </g>
   </g>
  </g>
 </g>
 <defs>
  <clipPath id="p3217205e13">
   <rect x="62.03" y="20.52" width="290.88" height="166.495707"/>
  </clipPath>
 </defs>
</svg>
